<?xml version="1.0" encoding="UTF-8"?>
<svg width="48" height="48" version="1.1" viewBox="0 0 13.546667 13.546667" xmlns="http://www.w3.org/2000/svg" xmlns:cc="http://creativecommons.org/ns#" xmlns:dc="http://purl.org/dc/elements/1.1/" xmlns:rdf="http://www.w3.org/1999/02/22-rdf-syntax-ns#" xmlns:xlink="http://www.w3.org/1999/xlink">
<metadata>
<rdf:RDF>
<cc:Work rdf:about="">
<dc:format>image/svg+xml</dc:format>
<dc:type rdf:resource="http://purl.org/dc/dcmitype/StillImage"/>
<dc:title/>
</cc:Work>
</rdf:RDF>
</metadata>
<g fill="#9c0" fill-rule="evenodd">
<rect x=".847" y=".847" width="11.853" height="11.853" rx="1.5991" fill="#9c0"/>
</g>
<g transform="matrix(.18452 0 0 .18452 1.5831 2.2251)" fill="#fff">
<path d="m35.021 8.568 0.547-0.819 0.537-0.808 1.209-1.813c0.148-0.223 0.088-0.523-0.133-0.672-0.225-0.149-0.525-0.089-0.674 0.135l-1.295 1.944-0.545 0.817-0.553 0.828c-1.752-0.679-3.705-1.06-5.768-1.06-2.061 0-4.014 0.381-5.766 1.06l-0.55-0.828-0.545-0.817-1.297-1.945c-0.148-0.223-0.449-0.283-0.673-0.135-0.222 0.148-0.282 0.449-0.134 0.672l1.208 1.813 0.539 0.808 0.547 0.819c-4.115 1.916-6.898 5.546-6.898 9.701h27.142c0-4.154-2.783-7.784-6.898-9.7zm-12.489 5.823c-0.805 0-1.455-0.651-1.455-1.454s0.65-1.453 1.455-1.453c0.803 0 1.453 0.65 1.453 1.453s-0.65 1.454-1.453 1.454zm11.631 0c-0.803 0-1.453-0.651-1.453-1.454s0.65-1.453 1.453-1.453c0.805 0 1.455 0.65 1.455 1.453s-0.65 1.454-1.455 1.454z"/>
<path transform="translate(30.736 4.8695)" d="m-15.969 15.344v2.4062 1.9688 16.938c0 1.5872 1.2351 2.905 2.7812 3.0625h21.625c1.5386-0.16489 2.75-1.4808 2.75-3.0625v-16.938-1.9688-2.4062h-0.21875-26.719-0.21875z"/>
<path d="m9.929 20.208c-1.606 0-2.908 1.301-2.908 2.909v12.439c0 1.605 1.302 2.908 2.908 2.908 1.605 0 2.908-1.303 2.908-2.908v-12.44c0-1.607-1.302-2.908-2.908-2.908z"/>
<path d="m46.767 20.208c-1.607 0-2.908 1.301-2.908 2.909v12.439c0 1.605 1.301 2.908 2.908 2.908 1.605 0 2.906-1.303 2.906-2.908v-12.44c0-1.607-1.301-2.908-2.906-2.908z"/>
</g>
<path d="m5.4679 10.249c0-0.30073 0.039048-0.32188 0.59433-0.32188h0.43635v-0.12157c0-0.10858-0.012339-0.12411-0.11551-0.14535-0.38646-0.079579-0.92797-0.48345-1.1452-0.85412-0.51291-0.87521-0.24759-1.9911 0.60851-2.5594 0.57234-0.3799 1.4429-0.3799 2.0152 0 0.8561 0.56825 1.1214 1.6842 0.60851 2.5594-0.22049 0.37624-0.75137 0.77208-1.1452 0.85391-0.10313 0.021433-0.11551 0.037031-0.11551 0.14557v0.12157h0.43635c0.55528 0 0.59433 0.021154 0.59433 0.32188v0.21123h-1.3861-1.3861zm1.7629-1.5625c0.16948-0.076967 0.37833-0.27491 0.46318-0.43898 0.032613-0.063066 0.066895-0.2209 0.076185-0.35074 0.028509-0.39846-0.17134-0.73214-0.54295-0.90654-0.23791-0.11166-0.50845-0.11166-0.74636 0-0.22942 0.10767-0.36243 0.24294-0.47179 0.47977-0.074133 0.16055-0.085382 0.22801-0.07116 0.42677 0.019389 0.27099 0.082192 0.41212 0.26454 0.59447 0.18461 0.18462 0.37611 0.26145 0.65159 0.26145 0.14946 0 0.28247-0.023374 0.37677-0.066195zm-0.55446-0.39684c-0.22087-0.092596-0.34928-0.33859-0.28654-0.54892 0.017394-0.058309 0.033003-0.078027 0.034684-0.043818 0.00475 0.09642 0.13448 0.20436 0.24564 0.20436 0.12334 0 0.25498-0.13101 0.25498-0.25377 0-0.08743-0.10749-0.21559-0.21324-0.25425-0.029318-0.010716 0.024767-0.020749 0.1202-0.022294 0.31054-0.00503 0.50469 0.19159 0.49659 0.50291-0.00808 0.31069-0.36315 0.53701-0.65231 0.41578z" fill="#9c0"/>
</svg>
